<svg xmlns="http://www.w3.org/2000/svg" viewBox="0 0 200 65">
  <rect width="200" height="65" fill="#ffffff"/>
  <path fill="#000" d="M44.5 15.5c-1.8 2.1-4.8 3.6-7.6 3.4-.4-2.9.8-6 2.4-7.9 1.7-2 4.6-3.5 7-3.6.3 3-.9 6.1-1.8 8.1zm1.4 2.3c-3.9-.2-7.2 2.2-9 2.2-1.9 0-4.7-2.1-7.8-2-4 .1-7.7 2.3-9.8 5.9-4.2 7.3-.1 18.1 3 24 1.5 2.9 3.3 6.1 5.7 6 2.3-.1 3.2-1.5 6-1.5s3.6 1.5 6.1 1.4c2.5-.1 4-2.9 5.5-5.8 1.8-3.3 2.5-6.5 2.5-6.7-.1-.1-4.8-1.8-4.9-7.2-.1-4.5 3.7-6.7 3.9-6.8-2.1-3.1-5.4-3.5-6.6-3.5h.4z"/>
  <text x="70" y="40" font-family="-apple-system, BlinkMacSystemFont, sans-serif" font-size="22" font-weight="400" fill="#000">Pay</text>
</svg>