<svg xmlns="http://www.w3.org/2000/svg" viewBox="0 0 200 65">
  <rect width="200" height="65" fill="#ffffff"/>
  <circle cx="45" cy="32.5" r="20" fill="#F7931A"/>
  <path fill="#fff" d="M51.2 26.8c.4-2.7-.7-4.2-1.9-5.2l1.5-6.1-3.7-.9-1.5 5.9c-1-.2-2-.4-3-.6l1.5-6-3.7-.9-1.5 6.1c-.8-.2-1.6-.3-2.4-.5l-5.1-1.3-.9 3.9s2.7.6 2.6.6c1.5.4 1.8 1.4 1.7 2.2l-4.3 17.3c-.2.6-.8 1.5-2.1 1.1 0 .1-2.6-.7-2.6-.7l-1.8 4.2 4.8 1.2c.9.2 1.8.4 2.6.6l-1.5 6.1 3.7.9 1.5-6.1c1 .3 2 .5 3 .7l-1.5 6 3.7.9 1.5-6.1c6.2 1.2 10.9.7 12.9-4.9 1.6-4.5-.1-7.1-3.3-8.8 2.3-.5 4.1-2.1 4.6-5.3zm-8.2 11.5c-1.1 4.5-8.8 2.1-11.3 1.5l2-8.1c2.5.6 10.5 1.8 9.3 6.6zm1.1-11.6c-1 4.1-7.2 2-9.2 1.5l1.8-7.3c2 .5 8.5 1.4 7.4 5.8z"/>
  <text x="75" y="40" font-family="Arial, sans-serif" font-size="18" font-weight="600" fill="#1A1A1A">BitPay</text>
</svg>