<svg xmlns="http://www.w3.org/2000/svg" viewBox="0 0 200 65">
  <rect width="200" height="65" fill="#ffffff"/>
  <path fill="#635BFF" d="M68.3 36.8c0-3.2-2.1-5.4-5.6-6.7-2.1-.8-3.2-1.5-3.2-2.6 0-.9.8-1.6 2.2-1.6 2 0 4.5.8 6.5 2.2l2.4-7.2c-2.4-1.6-5.7-2.4-8.9-2.4-7.4 0-12.5 4.4-12.5 10.6 0 3.4 2.2 6 6.2 7.4 2.3.8 3.1 1.5 3.1 2.6 0 1-.9 1.8-2.5 1.8-2.7 0-5.5-1.1-7.8-3.1l-2.6 7.1c2.7 2 6.5 3.1 10.4 3.1 7.8 0 13.3-3.8 13.3-10.8zm12.2-7.3h-5.5v-8.2l-8.8 2.6v5.6h-3.3v7.3h3.3v8.7c0 7.2 3.5 10.9 10.4 10.9 2.9 0 5.3-.6 7.2-1.5l-1.4-7c-1.2.4-2.2.6-3.2.6-1.8 0-2.7-.8-2.7-2.8v-8.9h5.5l-.5-7.3zm13.4-10.2c-2.8 0-4.7 1.3-6 3.1l-.5-2.7h-7.8v35.4h8.8v-12.1c1.2 1.4 3 2.3 5.4 2.3 5.4 0 10.9-4.3 10.9-12.8 0-8.4-5.4-13.2-10.8-13.2zm-2.2 19.4c-1.8 0-2.9-.8-3.5-1.8V33c.6-1.1 1.7-1.9 3.5-1.9 2.7 0 4.5 2.4 4.5 6.3 0 3.8-1.8 6.3-4.5 6.3zm20.7-19.1c-3.6 0-6 1.7-7.1 4.1l-.4-3.7H96v26.1h8.8v-14.6c0-2.2 1.4-3.6 3.4-3.6s2.9 1.4 2.9 3.6v14.6h8.8v-16.6c0-6.1-3.2-9.9-8.6-9.9zm28.8 13.4c0-7.8-4.8-13.4-12.8-13.4s-13.2 5.6-13.2 13.4c0 8.8 5.8 13.4 14.1 13.4 4 0 7.1-.9 9.7-2.8l-3.4-5.9c-1.8 1.1-3.8 1.6-5.8 1.6-2.9 0-5.1-1.2-5.8-3.6h16.9c.2-.9.3-1.8.3-2.7zm-17.1-2.1c.4-2.1 1.9-3.6 4.2-3.6s3.7 1.5 4.1 3.6h-8.3z"/>
</svg>