<svg xmlns="http://www.w3.org/2000/svg" viewBox="0 0 200 65">
  <rect width="200" height="65" fill="#ffffff"/>
  <path fill="#1A1F71" d="M85.5 16.2h-11.6l-7.3 32.6h11.6l7.3-32.6zm47.6 21.2c0-8.6-17.1-9.1-17-12.9 0-1.1 1.7-2.4 5.2-2.7 1.7-.1 6.4-.2 11.7 1.4l2.1-6.7c-2.9-.7-6.5-1.4-11.1-1.4-11.7 0-20 4.2-20.1 10.3 0 4.5 5.9 7 10.5 8.6 4.7 1.5 6.3 2.6 6.3 3.9-.1 2.2-3.8 3.1-7.3 3.1-6.1.1-9.7-1.1-12.6-1.9l-2.3 7.1c2.9.9 8.2 1.7 13.7 1.7 12.5 0 20.6-4.1 20.9-10.6l.1-.6zm31.7-21.2h-9c-2.7 0-4.9.5-6.1 2.5l-21.6 30.1h12.5s2-3.8 2.4-4.6h15.2c.3 1 1.4 4.6 1.4 4.6h11l-15.8-32.6zm-12.9 21.2c.9-1.8 4.7-8.7 4.7-8.7s.9-1.8 1.5-2.9l.8 2.7s2.1 7.1 2.6 8.9h-9.6zm-88.1-21.2l-11.4 22.3-12.1-19.3c-.9-2.4-3.5-3-6.5-3H19l-.3.9c4.3.6 9 1.7 11.9 2.7 1.8.6 2.3 1.2 2.9 2.8l9.7 25.5h12.6l19.4-33H63.8z"/>
</svg>